<?xml version="1.0" encoding="UTF-8"?>
<svg xmlns="http://www.w3.org/2000/svg" xmlns:xlink="http://www.w3.org/1999/xlink" width="0" height="0">
<symbol id="arrow" width="10" height="18" viewBox="0 0 10 18" fill="none">
<path fill-rule="evenodd" clip-rule="evenodd" d="M9.66053 0.401157C10.1272 0.915451 10.108 1.72975 9.61804 2.21833L3.37247 8.69844C3.21164 8.8613 3.21164 9.13559 3.37247 9.29845L9.62137 15.7786C10.1105 16.2671 10.128 17.0814 9.66053 17.5957C9.19305 18.1186 8.41725 18.1357 7.92894 17.6386L0.390931 9.96703C-0.114047 9.45274 -0.13238 8.61272 0.350933 8.08129L7.92894 0.358299C8.41809 -0.138852 9.19389 -0.113138 9.66053 0.401157Z" fill="#384564"/>
</symbol>

<symbol id="arrow-left" width="18" height="18" viewBox="0 0 18 18" fill="none">
<g opacity="0.497652">
<path fill-rule="evenodd" clip-rule="evenodd" d="M10.4974 1.51303C9.67041 0.686035 8.32959 0.686036 7.5026 1.51303L1.51299 7.50264C0.685994 8.32963 0.685994 9.67045 1.51299 10.4974L7.5026 16.4871C8.32959 17.314 9.67041 17.314 10.4974 16.4871C11.3244 15.6601 11.3244 14.3192 10.4974 13.4922L6.00519 9.00004L10.4974 4.50783C11.3244 3.68084 11.3244 2.34002 10.4974 1.51303Z" fill="#3A4562"/>
<mask style="mask-type:alpha" maskUnits="userSpaceOnUse" x="0" y="0" width="12" height="18">
<path fill-rule="evenodd" clip-rule="evenodd" d="M10.4974 1.51303C9.67041 0.686035 8.32959 0.686036 7.5026 1.51303L1.51299 7.50264C0.685994 8.32963 0.685994 9.67045 1.51299 10.4974L7.5026 16.4871C8.32959 17.314 9.67041 17.314 10.4974 16.4871C11.3244 15.6601 11.3244 14.3192 10.4974 13.4922L6.00519 9.00004L10.4974 4.50783C11.3244 3.68084 11.3244 2.34002 10.4974 1.51303Z" fill="white"/>
</mask>
<g mask="url(#mask0_10206_535)">
<rect width="14.2941" height="18" fill="#7D859C"/>
</g>
</g>
</symbol>

<symbol id="arrow-right" width="18" height="18" viewBox="0 0 18 18" fill="none">
<g opacity="0.498465">
<path fill-rule="evenodd" clip-rule="evenodd" d="M7.5026 1.51303C8.32959 0.686035 9.67041 0.686036 10.4974 1.51303L16.487 7.50264C17.314 8.32963 17.314 9.67045 16.487 10.4974L10.4974 16.4871C9.67041 17.314 8.32959 17.314 7.5026 16.4871C6.67561 15.6601 6.67561 14.3192 7.5026 13.4922L11.9948 9.00004L7.5026 4.50783C6.6756 3.68084 6.67561 2.34002 7.5026 1.51303Z" fill="#3A4562"/>
<mask style="mask-type:alpha" maskUnits="userSpaceOnUse" x="6" y="0" width="12" height="18">
<path fill-rule="evenodd" clip-rule="evenodd" d="M7.5026 1.51303C8.32959 0.686035 9.67041 0.686036 10.4974 1.51303L16.487 7.50264C17.314 8.32963 17.314 9.67045 16.487 10.4974L10.4974 16.4871C9.67041 17.314 8.32959 17.314 7.5026 16.4871C6.67561 15.6601 6.67561 14.3192 7.5026 13.4922L11.9948 9.00004L7.5026 4.50783C6.6756 3.68084 6.67561 2.34002 7.5026 1.51303Z" fill="white"/>
</mask>
<g mask="url(#mask0_10206_543)">
<rect width="14.2941" height="18" transform="matrix(-1 0 0 1 18 0)" fill="#7D859C"/>
</g>
</g>
</symbol>

<symbol id="bookmark" width="18" height="19" viewBox="0 0 18 23" fill="none">
<path fill-rule="evenodd" clip-rule="evenodd" d="M1 3.99992C1 2.52716 2.19391 1.33325 3.66667 1.33325H14.3333C15.8061 1.33325 17 2.52716 17 3.99992V19.9933C17 21.1593 15.609 21.7636 14.7567 20.9679L9.90994 16.4426C9.39761 15.9642 8.60239 15.9642 8.09007 16.4426L3.24327 20.9679C2.39104 21.7636 1 21.1593 1 19.9933V3.99992Z" stroke="#70778B" stroke-width="2"/>
</symbol>

<symbol id="location" width="13" height="18" viewBox="0 0 13 18" fill="none">
<path fill-rule="evenodd" clip-rule="evenodd" d="M6.5 18C6.5 18 13 11.9706 13 7C13 2.02944 10.0899 0 6.5 0C2.91015 0 0 2.02944 0 7C0 11.9706 6.5 18 6.5 18ZM6.5 10C8.433 10 10 8.433 10 6.5C10 4.567 8.433 3 6.5 3C4.567 3 3 4.567 3 6.5C3 8.433 4.567 10 6.5 10Z" fill="#878D9D"/>
</symbol>

<symbol id="share" width="33" height="32" viewBox="0 0 33 32" fill="none">
<g clip-path="url(#clip0_10206_1462)">
<path fill-rule="evenodd" clip-rule="evenodd" d="M20.54 20.9096L13.41 16.743C13.46 16.512 13.5 16.2811 13.5 16.0402C13.5 15.7992 13.46 15.5683 13.41 15.3373L20.46 11.2108C21 11.7129 21.71 12.0241 22.5 12.0241C24.16 12.0241 25.5 10.6787 25.5 9.01205C25.5 7.34538 24.16 6 22.5 6C20.84 6 19.5 7.34538 19.5 9.01205C19.5 9.25301 19.54 9.48394 19.59 9.71486L12.54 13.8414C12 13.3394 11.29 13.0281 10.5 13.0281C8.84 13.0281 7.5 14.3735 7.5 16.0402C7.5 17.7068 8.84 19.0522 10.5 19.0522C11.29 19.0522 12 18.741 12.54 18.239L19.66 22.4157C19.61 22.6265 19.58 22.8474 19.58 23.0683C19.58 24.6847 20.89 26 22.5 26C24.11 26 25.42 24.6847 25.42 23.0683C25.42 21.4518 24.11 20.1365 22.5 20.1365C21.74 20.1365 21.06 20.4378 20.54 20.9096Z" fill="#70778B"/>
</g>
<defs>
<clipPath>
<rect width="18" height="20" fill="white" transform="translate(7.5 6)"/>
</clipPath>
</defs>
</symbol>

<symbol id="star" width="19" height="18" viewBox="0 0 19 18" fill="none">
<path fill-rule="evenodd" clip-rule="evenodd" d="M6.69871 4.58966C7.42979 2.93116 8.82013 0.000488281 9.51634 0.000488281C10.5274 -0.000511719 12.7421 5.68649 12.7421 5.68649C12.7421 5.68649 14.7923 5.86549 16.4493 6.04849C17.3289 6.14549 18.8997 6.29349 18.998 6.77849C19.019 6.88349 18.8927 7.31249 18.663 7.61149C17.69 8.88149 15.1654 11.6025 15.1654 11.6025C15.1654 11.6025 15.3038 12.9025 15.4272 14.3245C15.5064 15.2445 15.7201 17.1085 15.6428 17.4415C15.5586 17.8085 15.4071 17.9085 15.2497 17.9665C14.8384 18.1165 13.8835 17.5335 12.7682 16.9995C11.2486 16.2705 9.54141 15.4915 9.54141 15.4915C9.54141 15.4915 8.41501 16.0805 7.07998 16.6555C5.65367 17.2695 4.20931 18.2815 3.60649 17.9255C3.23035 17.7025 3.50919 15.9645 3.65363 14.4175C3.78904 12.9585 3.90639 11.6255 3.90639 11.6255C3.90639 11.6255 3.06987 10.6435 2.09592 9.59349C1.04375 8.45849 -0.239128 7.23349 0.0387113 6.78349C0.248344 6.44349 1.20523 6.26149 2.81209 6.06249C4.51924 5.85049 6.22439 5.70049 6.22439 5.70049C6.22439 5.70049 6.41022 5.24412 6.69871 4.58966Z" fill="#38415D"/>
</symbol>

</svg>
